# xmcd
#
# Track frame offsets:
#	150
#	21640
#	39290
#	55985
#	86320
#	98202
#	119197
#	138132
#	151407
#	180145
#
# Disc length: 2619 seconds
# Revision: 1
# Processed by: cddbd v1.5.2PL0 Copyright (c) Steve Scherf et al.
# Submitted via: dBpowerAMP V12.0
#
DISCID=7a0a390a
DTITLE=西村由紀江 ~ Yukie Nishimura - L'espoir [dBP-LITE-1-FLAC@]
DYEAR=1989
DGENRE=Pop
TTITLE0=White Beach
TTITLE1=木漏れ日の中で
TTITLE2=ひっくり返ったおもちゃ箱
TTITLE3=Peppermint Breezes
TTITLE4=幻想の夜曲
TTITLE5=Bon Voyage
TTITLE6=Musee d'Orsay〜オルセー美術館にて〜
TTITLE7=小さな贈りもの
TTITLE8=Deja-Vu
TTITLE9=線路沿いに咲く菜の花
EXTD=
EXTT0=
EXTT1=
EXTT2=
EXTT3=
EXTT4=
EXTT5=
EXTT6=
EXTT7=
EXTT8=
EXTT9=
PLAYORDER=
